<svg width="107" height="28" viewBox="0 0 107 28" fill="none" xmlns="http://www.w3.org/2000/svg">
<path d="M0.737139 28V-1.90735e-06H12.1371C13.4438 0.479998 14.6038 1.32 15.6171 2.52C16.6305 3.72 17.1371 5.17333 17.1371 6.88C17.1371 9.89333 16.1505 12 14.1771 13.2V13.36C16.6305 14.72 17.8571 16.8533 17.8571 19.76C17.8571 23.0933 16.1638 25.84 12.7771 28H0.737139ZM6.17714 11.56H10.1371C11.3105 10.84 11.8971 9.74667 11.8971 8.28C11.8971 6.81333 11.3505 5.65333 10.2571 4.8H6.17714V11.56ZM6.17714 23.36H10.2971C10.7771 23.0133 11.2038 22.4667 11.5771 21.72C11.9771 20.9733 12.1771 20.2267 12.1771 19.48C12.1771 18.7333 12.0171 18.0533 11.6971 17.44C11.3771 16.8267 10.9771 16.3733 10.4971 16.08H6.17714V23.36ZM23.1103 4.8H17.0703V-1.90735e-06H34.5903V4.8H28.5503V28H23.1103V4.8Z" fill="#4F46E5"/>
<path d="M35.3106 28V-1.90735e-06H46.7106C48.0172 0.479998 49.1772 1.32 50.1906 2.52C51.2039 3.72 51.7106 5.17333 51.7106 6.88C51.7106 9.89333 50.7239 12 48.7506 13.2V13.36C51.2039 14.72 52.4306 16.8533 52.4306 19.76C52.4306 23.0933 50.7372 25.84 47.3506 28H35.3106ZM40.7506 11.56H44.7106C45.8839 10.84 46.4706 9.74667 46.4706 8.28C46.4706 6.81333 45.9239 5.65333 44.8306 4.8H40.7506V11.56ZM40.7506 23.36H44.8706C45.3506 23.0133 45.7772 22.4667 46.1506 21.72C46.5506 20.9733 46.7506 20.2267 46.7506 19.48C46.7506 18.7333 46.5906 18.0533 46.2706 17.44C45.9506 16.8267 45.5506 16.3733 45.0706 16.08H40.7506V23.36ZM65.6696 28L64.8296 23.56H58.5096L57.6696 28H52.2296L57.6296 -1.90735e-06H65.9096L71.0296 28H65.6696ZM61.5896 5.2L60.0296 14.52L59.1496 19.28H64.1496L63.2296 14.52L61.6696 5.2H61.5896ZM84.239 28L76.759 12.52L76.559 12.6L76.799 17.32V28H71.759V-1.90735e-06H75.799L83.159 16.08L83.359 16L82.919 11.08V-1.90735e-06H87.959V28H84.239ZM90.1981 28V-1.90735e-06H95.6781V11.8H95.8781L100.878 -1.90735e-06H106.518L100.678 13.36L106.798 28H100.718L95.9581 15.76H95.6781V28H90.1981Z" fill="white"/>
</svg>
