<svg width="39" height="45" viewBox="0 0 39 45" fill="none" xmlns="http://www.w3.org/2000/svg">
<path fill-rule="evenodd" clip-rule="evenodd" d="M38.317 20.156C38.31 15.7696 36.8745 11.5049 34.2279 8.00694C31.5812 4.50902 27.8673 1.96827 23.648 0.769093C19.4287 -0.430089 14.9337 -0.222451 10.8429 1.36058C6.75217 2.94361 3.28829 5.81591 0.975342 9.54291L3.07183 11.6394C3.65709 10.6006 4.34813 9.62509 5.13396 8.72838L5.1099 8.70432L5.84539 7.96882C8.26216 5.53801 11.3462 3.87939 14.7066 3.20314C18.0669 2.52688 21.5525 2.86345 24.7214 4.17018C27.8903 5.47691 30.6 7.69499 32.507 10.5433C34.414 13.3916 35.4325 16.7419 35.4334 20.1697V20.1698C35.4334 20.5135 35.4334 20.8571 35.4025 21.2008V21.3451V21.4517V21.6648C35.4025 21.7335 35.4025 21.7885 35.3853 21.8504L35.3544 22.1287C35.3544 22.1837 35.3544 22.2422 35.3338 22.304C35.3198 22.3457 35.3153 22.4046 35.3107 22.4649C35.3084 22.494 35.3062 22.5235 35.3028 22.5515L35.2822 22.689C35.2822 22.7439 35.2705 22.8039 35.2588 22.8643C35.2537 22.8907 35.2486 22.9171 35.2444 22.9433C35.2377 22.9852 35.2334 23.0091 35.23 23.0282L35.23 23.0283C35.2279 23.0405 35.226 23.0507 35.2242 23.0623C35.2229 23.0699 35.2217 23.078 35.2203 23.0876C35.2183 23.1021 35.2174 23.1156 35.2166 23.1286V23.1287C35.2148 23.1591 35.2131 23.187 35.1963 23.2182C35.1801 23.2482 35.1764 23.2906 35.1725 23.3339C35.1706 23.3551 35.1687 23.3766 35.1653 23.3969C35.1602 23.4279 35.1542 23.4562 35.1482 23.4846C35.1421 23.5129 35.1361 23.5413 35.131 23.5722L35.0897 23.775C34.9901 24.2458 34.8663 24.7236 34.746 25.1807C34.7392 25.2025 34.7327 25.2243 34.7262 25.246L34.7262 25.2461C34.7132 25.2896 34.7002 25.3331 34.6842 25.3766C34.669 25.4179 34.6606 25.4482 34.6522 25.4788L34.6522 25.4788C34.6473 25.4966 34.6424 25.5145 34.6361 25.5347C34.5364 25.8371 34.4264 26.143 34.313 26.4386L34.2614 26.5623L34.1618 26.7273C34.1377 26.7823 34.1102 26.8476 34.0862 26.9094L34.0174 27.0641V27.0881L33.9246 27.3012C33.9006 27.3562 33.8765 27.4078 33.849 27.4593C33.409 28.408 32.8832 29.3145 32.2784 30.1676L32.1821 30.3016L31.9725 30.5834L31.9519 30.6112C31.9265 30.6454 31.899 30.6825 31.8694 30.7175L31.6425 31.0096L31.5051 31.1746L31.3779 31.3293L31.237 31.4942C31.2187 31.5148 31.2008 31.5354 31.1828 31.556C31.1469 31.5973 31.111 31.6385 31.072 31.6798L33.1067 33.7144C36.474 30.0032 38.3324 25.1672 38.317 20.156ZM34.0519 35.3877C34.8366 34.4901 35.5276 33.5147 36.114 32.4767L38.1487 34.6144C36.6711 36.9966 34.7134 39.0449 32.4004 40.6287C30.0875 42.2124 27.4699 43.297 24.7146 43.8132C21.9593 44.3293 19.1266 44.2659 16.3972 43.6267C13.6678 42.9876 11.1015 41.7869 8.8618 40.101C6.62211 38.4152 4.75819 36.2813 3.38884 33.8353C2.01949 31.3892 1.17473 28.6848 0.908419 25.8942C0.642105 23.1036 0.960071 20.2882 1.84205 17.6273C2.72403 14.9664 4.15069 12.5185 6.03108 10.4395L8.06571 12.4741L7.90074 12.6597L7.90063 12.6598L7.90062 12.6598C7.85254 12.7113 7.80447 12.7628 7.75983 12.8212C7.73329 12.8559 7.70553 12.8882 7.67801 12.9202L7.678 12.9202L7.67798 12.9202C7.65918 12.9421 7.64048 12.9639 7.62235 12.9862C7.60863 13.0031 7.5949 13.0203 7.58108 13.0376L7.58105 13.0377C7.54988 13.0768 7.5182 13.1165 7.48488 13.1546L7.25804 13.4433C7.22024 13.488 7.18587 13.5361 7.15494 13.5808L6.94873 13.8591L6.84906 13.9932C6.24493 14.8467 5.71923 15.7532 5.27841 16.7014L5.20623 16.8595C5.17188 16.9317 5.14096 17.0038 5.11005 17.0759L5.11 17.0761V17.1001C5.10268 17.1158 5.09377 17.1315 5.08491 17.1471C5.06466 17.1827 5.0447 17.2179 5.0447 17.2513L4.96565 17.4369C4.94847 17.485 4.92784 17.5366 4.91066 17.5778C4.90565 17.5899 4.89947 17.6022 4.89323 17.6146C4.87807 17.6449 4.86254 17.6758 4.86254 17.705C4.74569 18.0006 4.63571 18.3065 4.53948 18.6055C4.52699 18.6388 4.51829 18.667 4.50878 18.6979C4.50259 18.718 4.49606 18.7392 4.48793 18.7636C4.48186 18.7818 4.47461 18.8 4.46739 18.8181C4.45006 18.8615 4.43294 18.9045 4.43294 18.9457C4.30921 19.4063 4.18548 19.8806 4.08925 20.3514C4.07206 20.4201 4.05488 20.4992 4.04457 20.5576C4.03978 20.5848 4.03424 20.6105 4.02865 20.6364C4.02222 20.6662 4.01572 20.6964 4.0102 20.7294C4.00678 20.7499 4.00488 20.7723 4.00298 20.7946C3.99915 20.8395 3.99536 20.884 3.97927 20.9116C3.96724 20.9322 3.96724 20.952 3.96724 20.9726C3.96724 20.9932 3.96724 21.0147 3.95521 21.0388C3.94075 21.0677 3.93995 21.0842 3.93862 21.1114C3.93775 21.1295 3.93664 21.1523 3.93115 21.1866C3.92686 21.2134 3.92156 21.2402 3.9163 21.2669C3.90472 21.3255 3.89335 21.3831 3.89335 21.4374L3.87273 21.5784C3.86922 21.6064 3.86452 21.6348 3.85985 21.6631C3.85078 21.7181 3.84179 21.7725 3.84179 21.8224C3.82805 21.8842 3.82117 21.9427 3.82117 21.9977L3.79024 22.276V22.4616L3.76962 22.6747C3.77132 22.7056 3.77132 22.7366 3.76962 22.7675V22.9119C3.73869 23.2555 3.73869 23.5992 3.73869 23.9429V23.9429C3.73522 27.3739 4.75151 30.7284 6.65849 33.5806C8.56547 36.4327 11.2771 38.6538 14.449 39.9616C17.6208 41.2695 21.1099 41.6052 24.4729 40.926C27.8359 40.2468 30.9213 38.5835 33.337 36.1473L34.0725 35.4083L34.0519 35.3877ZM15.2188 38.0191C13.3716 37.2522 11.695 36.1265 10.2859 34.7071L10.2378 34.9134C8.82189 33.497 7.69931 31.8152 6.93438 29.9644C6.16944 28.1135 5.77717 26.1299 5.78005 24.1272C5.78292 22.1245 6.18087 20.142 6.95112 18.2934C7.72137 16.4447 8.84876 14.7662 10.2687 13.3539C11.3707 12.2612 12.6313 11.3412 14.0081 10.625L16.1664 12.7833C14.7286 13.4003 13.4194 14.2816 12.3068 15.3816C10.0382 17.6297 8.72893 20.6693 8.65375 23.8622C8.57858 27.0552 9.74339 30.153 11.9036 32.5054C14.0639 34.8578 17.0515 36.2817 20.2392 36.4782C23.427 36.6747 26.5669 35.6285 28.9997 33.5592L31.0343 35.5939L30.9518 35.666L30.6803 35.8963L30.536 36.0166L30.3916 36.13L30.3573 36.1541L30.2713 36.2228L30.1304 36.3328L29.9998 36.429L29.9242 36.484L29.8177 36.5596H29.797L29.6561 36.6593C29.4843 36.7796 29.3262 36.8827 29.1715 36.9824L28.8278 37.1955L28.6182 37.3192L28.522 37.3742C28.2161 37.546 27.8999 37.711 27.5803 37.8622L27.4256 37.9378H27.3947L27.2916 37.9825L27.0991 38.0684L26.886 38.1612L26.6695 38.2471L26.5389 38.2987C26.4839 38.3227 26.4255 38.3434 26.3636 38.364L26.2433 38.4121H26.2158L26.1162 38.4499L25.7347 38.5771L25.6109 38.6149L25.4391 38.6699L25.3257 38.7042H25.3051L25.2157 38.7317L25.0988 38.7627L24.9511 38.8039L24.7655 38.852H24.6967L24.4286 38.9139L24.0231 38.9998L23.8684 39.0273H23.8513L23.731 39.0479H23.7138L23.5626 39.072C23.3838 39.1029 23.1983 39.1304 23.0092 39.1545H22.858H22.7824H22.6655H22.4903L22.284 39.1751H22.2325H22.1294H21.906H21.6276H21.4317H21.0468C19.0468 39.1789 17.0659 38.786 15.2188 38.0191ZM25.1262 33.6972L22.9679 31.5388C24.4351 30.8808 25.761 29.9448 26.8722 28.7824C29.1407 26.5343 30.45 23.4947 30.5252 20.3018C30.6004 17.1089 29.4356 14.0111 27.2753 11.6587C25.1151 9.30629 22.1275 7.88236 18.9397 7.68586C15.752 7.48936 12.6121 8.53558 10.1793 10.6048L8.14465 8.56675L8.22714 8.49459L8.49865 8.26432L8.65675 8.13714L8.80109 8.0203L8.83546 7.99624L8.92138 7.92749L9.0623 7.82095L9.1929 7.72473L9.26507 7.66973L9.37505 7.59069L9.40255 7.57007L9.53315 7.4807C9.70499 7.36385 9.86309 7.25731 10.0177 7.16108L10.1587 7.07172L10.3786 6.93767L10.578 6.82083L10.6708 6.76583C10.9766 6.59399 11.2928 6.42902 11.6125 6.2778L11.7706 6.2022H11.798L11.9012 6.15752L12.0936 6.0716L12.3067 5.98223L12.5232 5.89287L12.6538 5.84131L12.8325 5.77601L12.9494 5.73133H12.9803L13.0766 5.69697L13.4581 5.56636L13.5818 5.52856L13.7536 5.477L13.867 5.44264H13.8877L13.977 5.41514L14.0939 5.38422L14.2417 5.34298L14.4273 5.29486H14.496L14.7641 5.22956L15.1731 5.14364L15.3243 5.11614H15.3483L15.4618 5.09551H15.4789L15.6302 5.06801C15.8123 5.03708 15.9945 5.01303 16.1835 4.98897L16.3313 4.96835H16.3519H16.4103H16.5272L16.7025 4.95117H16.9087H16.9602H17.0633H17.2867H17.5651H17.7541H18.1356C21.5462 4.95332 24.8573 6.10055 27.5382 8.20894C30.219 10.3173 32.1143 13.2648 32.9202 16.5788C33.7261 19.8928 33.396 23.3814 31.9827 26.4854C30.5695 29.5895 28.155 32.1291 25.1262 33.6972Z" fill="white"/>
</svg>
